HIERARCHY
ROOT joint_0
{
	OFFSET 0.000000 0.000000 0.000000
	CHANNELS 6 Xposition Yposition Zposition Zrotation Yrotation Xrotation 
	JOINT joint_1
	{
		OFFSET 11.612000 -0.419000 106.198000
		CHANNELS 3 Zrotation Yrotation Xrotation
		JOINT joint_2
		{
			OFFSET -1.708000 -1.022000 97.564090
			CHANNELS 3 Zrotation Yrotation Xrotation
			JOINT joint_3
			{
				OFFSET -4.121000 -1.538000 97.375000
				CHANNELS 3 Zrotation Yrotation Xrotation
				JOINT joint_4
				{
					OFFSET 5.442000 -2.123000 132.795900
					CHANNELS 3 Zrotation Yrotation Xrotation
					JOINT joint_5
					{
						OFFSET 21.935000 0.195000 82.975100
						CHANNELS 3 Zrotation Yrotation Xrotation
						End Site
						{
							OFFSET 0.000000 0.000000 0.000000
						}
					}
				}
				JOINT joint_6
				{
					OFFSET 4.262000 -30.048000 73.899900
					CHANNELS 3 Zrotation Yrotation Xrotation
					JOINT joint_7
					{
						OFFSET 9.731000 -136.810010 -21.963010
						CHANNELS 3 Zrotation Yrotation Xrotation
						JOINT joint_8
						{
							OFFSET 33.360000 -35.709000 -267.597900
							CHANNELS 3 Zrotation Yrotation Xrotation
							JOINT joint_9
							{
								OFFSET 36.156000 -29.759000 -240.558040
								CHANNELS 3 Zrotation Yrotation Xrotation
								End Site
								{
									OFFSET 0.000000 0.000000 0.000000
								}
							}
						}
					}
				}
				JOINT joint_10
				{
					OFFSET 2.027000 27.734000 74.914920
					CHANNELS 3 Zrotation Yrotation Xrotation
					JOINT joint_11
					{
						OFFSET -5.183000 136.784000 -23.604980
						CHANNELS 3 Zrotation Yrotation Xrotation
						JOINT joint_12
						{
							OFFSET 29.806000 37.229000 -267.809940
							CHANNELS 3 Zrotation Yrotation Xrotation
							JOINT joint_13
							{
								OFFSET 36.890000 46.524990 -237.772030
								CHANNELS 3 Zrotation Yrotation Xrotation
								End Site
								{
									OFFSET 0.000000 0.000000 0.000000
								}
							}
						}
					}
				}
			}
		}
	}
	JOINT joint_14
	{
		OFFSET -7.290000 -102.873990 -124.314940
		CHANNELS 3 Zrotation Yrotation Xrotation
		JOINT joint_15
		{
			OFFSET -15.466000 -19.909010 -438.533020
			CHANNELS 3 Zrotation Yrotation Xrotation
			JOINT joint_16
			{
				OFFSET -26.899000 -18.922000 -464.797000
				CHANNELS 3 Zrotation Yrotation Xrotation
				JOINT joint_17
				{
					OFFSET 179.329000 -12.011000 -84.174000
					CHANNELS 3 Zrotation Yrotation Xrotation
					End Site
					{
						OFFSET 0.000000 0.000000 0.000000
					}
				}
			}
		}
	}
	JOINT joint_18
	{
		OFFSET -6.225000 101.546000 -125.479980
		CHANNELS 3 Zrotation Yrotation Xrotation
		JOINT joint_19
		{
			OFFSET -13.973000 7.996000 -438.963010
			CHANNELS 3 Zrotation Yrotation Xrotation
			JOINT joint_20
			{
				OFFSET -44.294000 5.716000 -463.813970
				CHANNELS 3 Zrotation Yrotation Xrotation
				JOINT joint_21
				{
					OFFSET 178.505000 -4.689000 -85.139000
					CHANNELS 3 Zrotation Yrotation Xrotation
					End Site
					{
						OFFSET 0.000000 0.000000 0.000000
					}
				}
			}
		}
	}
}
MOTION
Frames: 14
Frame Time: 0.016667
-2800.239746 875.106323 1105.131958 -4.836324 0.070093 -0.984278 1.680580 12.186890 3.892086 -2.568823 -2.212291 -0.857133 -4.129152 2.081416 0.571031 -1.325837 -6.106617 6.206974 0.000000 0.000000 0.000000 -4.767636 -52.705005 7.408871 6.381205 -11.276461 1.921696 11.198435 -42.380409 9.215001 0.000000 0.000000 0.000000 0.478709 -28.018621 8.217159 0.742789 -24.535498 -0.691345 -15.526514 -57.780339 2.183452 0.000000 0.000000 0.000000 4.056370 -12.886876 -8.848727 2.307232 58.114526 12.981692 7.396051 5.845968 2.978806 0.000000 0.000000 0.000000 5.415010 -10.887504 0.640277 8.101004 26.791926 2.891643 10.912232 -13.993164 4.347107 0.000000 0.000000 0.000000 
-2795.555664 873.577454 1109.704956 -4.389444 0.276868 -1.120057 1.645504 12.734301 4.382478 -2.730975 -2.251928 -0.954924 -4.235460 2.119307 0.655779 -1.300352 -6.487334 6.113486 0.000000 0.000000 0.000000 -5.113699 -54.285160 7.864265 6.471798 -11.739840 1.978264 11.162791 -38.790608 8.364437 0.000000 0.000000 0.000000 0.360770 -28.649157 8.105595 0.713845 -25.361514 -1.329122 -15.656743 -55.171245 2.667349 0.000000 0.000000 0.000000 3.490337 -14.949816 -9.356044 2.033943 57.354043 13.519854 6.422286 3.894881 2.616146 0.000000 0.000000 0.000000 5.482499 -9.917487 0.836852 7.894102 24.809984 2.809218 10.376164 -12.944505 4.170305 0.000000 0.000000 0.000000 
-2790.630615 871.664795 1114.293945 -4.036543 0.556320 -1.241850 1.540613 13.208485 4.770922 -2.865722 -2.281647 -1.022587 -4.265625 2.141147 0.724095 -1.298936 -6.738124 6.059757 0.000000 0.000000 0.000000 -4.814935 -54.908049 7.661643 6.317078 -12.517132 2.072939 11.082452 -36.068802 7.416504 0.000000 0.000000 0.000000 0.264422 -29.130729 8.112680 0.743212 -25.694085 -2.057029 -15.506799 -53.544618 2.606053 0.000000 0.000000 0.000000 3.091121 -16.876189 -9.707522 1.862859 55.807164 13.703059 5.792820 2.337101 2.380929 0.000000 0.000000 0.000000 5.632378 -8.991817 0.986022 7.743879 22.767538 2.818017 9.895884 -11.828702 4.020829 0.000000 0.000000 0.000000 
-2785.484863 869.371582 1119.123047 -3.726313 0.907210 -1.373316 1.342511 13.638151 5.147954 -2.982950 -2.293742 -1.086830 -4.205351 2.138298 0.793146 -1.311702 -6.907750 6.031509 0.000000 0.000000 0.000000 -3.942203 -54.616756 6.779076 5.890296 -13.624939 2.231672 10.987721 -34.188748 6.465731 0.000000 0.000000 0.000000 0.222541 -29.450956 8.234029 0.794692 -25.557860 -2.897956 -15.113133 -52.842736 2.112835 0.000000 0.000000 0.000000 2.789474 -18.562473 -9.895791 1.706311 53.207008 13.595560 5.266645 1.305208 2.189994 0.000000 0.000000 0.000000 5.840769 -8.077078 1.122765 7.624929 20.581629 2.886192 9.434323 -10.573913 3.885330 0.000000 0.000000 0.000000 
-2780.210205 866.533508 1123.436035 -3.431398 1.277501 -1.467871 1.105472 14.028386 5.451092 -3.070889 -2.306547 -1.135179 -4.100377 2.132473 0.844710 -1.323339 -7.030586 5.977846 0.000000 0.000000 0.000000 -3.123787 -54.074497 5.910314 5.337286 -14.785799 2.416386 10.869401 -32.703946 5.704550 0.000000 0.000000 0.000000 0.190100 -29.685641 8.346243 0.912129 -25.283669 -3.683501 -14.662024 -52.506286 1.365750 0.000000 0.000000 0.000000 2.487630 -20.059914 -9.946918 1.477358 50.035282 13.080003 4.624358 0.436653 1.928553 0.000000 0.000000 0.000000 6.027488 -7.234343 1.282175 7.508937 18.513273 2.904775 9.001402 -9.321593 3.758829 0.000000 0.000000 0.000000 
-2774.919189 863.025879 1126.739014 -3.149841 1.650888 -1.488044 0.864150 14.362672 5.613615 -3.118021 -2.342907 -1.150763 -3.980352 2.159744 0.864104 -1.325709 -7.137768 5.856403 0.000000 0.000000 0.000000 -2.768126 -53.725027 5.522485 4.786269 -15.846711 2.583344 10.733951 -31.297734 5.222161 0.000000 0.000000 0.000000 0.154624 -29.905251 8.353001 1.141253 -25.056632 -4.276080 -14.236714 -52.222017 0.369885 0.000000 0.000000 0.000000 2.112141 -21.441802 -9.854360 1.122914 46.535333 12.001221 3.752528 -0.526065 1.541424 0.000000 0.000000 0.000000 6.149913 -6.533594 1.475075 7.382352 16.750560 2.816918 8.602221 -8.175003 3.637955 0.000000 0.000000 0.000000 
-2769.579590 858.911438 1129.324951 -2.858726 2.028397 -1.430419 0.596238 14.676740 5.629997 -3.141707 -2.413592 -1.123917 -3.851531 2.211536 0.861978 -1.321662 -7.219439 5.688190 0.000000 0.000000 0.000000 -2.677488 -53.346483 5.377986 4.225836 -16.872234 2.753006 10.614431 -30.151971 4.903761 0.000000 0.000000 0.000000 0.133263 -30.050917 8.294836 1.470589 -24.775463 -4.735414 -13.794167 -52.183558 -0.933921 0.000000 0.000000 0.000000 1.671194 -22.590502 -9.617724 0.662962 42.371809 10.369966 2.745112 -1.160724 1.100586 0.000000 0.000000 0.000000 6.226856 -5.930159 1.658497 7.245079 15.190626 2.678114 8.226738 -7.083542 3.521512 0.000000 0.000000 0.000000 
-2763.943604 854.250916 1131.121948 -2.529742 2.362690 -1.308761 0.335809 14.987027 5.569748 -3.157098 -2.487742 -1.078615 -3.728606 2.257713 0.849677 -1.315685 -7.251252 5.516338 0.000000 0.000000 0.000000 -2.613854 -52.869111 5.235301 3.678408 -17.794824 2.898629 10.520396 -29.455014 4.782222 0.000000 0.000000 0.000000 0.081049 -30.106422 8.224076 1.767676 -24.497780 -5.143614 -13.425039 -52.228672 -2.079197 0.000000 0.000000 0.000000 1.172559 -23.444766 -9.326233 0.137894 37.862874 8.536938 1.741480 -1.388707 0.670655 0.000000 0.000000 0.000000 6.259756 -5.358993 1.836098 7.099277 13.847551 2.510896 7.888108 -6.174418 3.410400 0.000000 0.000000 0.000000 
-2757.896484 849.057434 1132.068970 -2.217038 2.670644 -1.162063 0.117027 15.239343 5.506285 -3.146559 -2.517354 -1.047702 -3.581986 2.288054 0.830292 -1.314460 -7.212408 5.370912 0.000000 0.000000 0.000000 -2.406255 -52.215436 4.916193 3.142321 -18.584800 2.990113 10.468926 -29.379575 4.938477 0.000000 0.000000 0.000000 -0.039171 -30.095116 8.172609 1.919664 -24.242284 -5.552901 -13.181098 -52.265943 -2.720530 0.000000 0.000000 0.000000 0.606988 -24.079914 -8.974782 -0.446063 33.187820 6.650101 0.758643 -1.430673 0.248346 0.000000 0.000000 0.000000 6.267313 -4.825267 2.052777 6.967635 12.730441 2.303870 7.603085 -5.556452 3.309062 0.000000 0.000000 0.000000 
-2751.532471 843.309509 1132.203003 -1.903777 2.953537 -0.966745 -0.063993 15.460565 5.390411 -3.119039 -2.536155 -1.007838 -3.433177 2.321848 0.800997 -1.317735 -7.113402 5.237500 0.000000 0.000000 0.000000 -2.151373 -51.418739 4.518642 2.629258 -19.254376 3.027155 10.473033 -29.856974 5.352091 0.000000 0.000000 0.000000 -0.206302 -30.025215 8.115747 1.976343 -23.982723 -5.928913 -13.016946 -52.373107 -3.054115 0.000000 0.000000 0.000000 -0.061017 -24.447883 -8.540227 -1.100682 28.060283 4.608347 -0.221174 -1.190686 -0.162087 0.000000 0.000000 0.000000 6.247483 -4.334775 2.282158 6.840564 11.829650 2.064802 7.353194 -5.186512 3.211770 0.000000 0.000000 0.000000 
-2744.630615 837.107727 1131.504028 -1.427936 3.097630 -0.667530 -0.231124 15.731166 5.190777 -3.134484 -2.586182 -0.936894 -3.370407 2.342458 0.774397 -1.320358 -6.967879 5.111439 0.000000 0.000000 0.000000 -1.998047 -50.646125 4.214320 2.232453 -19.737732 3.015591 10.532592 -30.616719 5.802475 0.000000 0.000000 0.000000 -0.372674 -29.847690 8.045942 2.005677 -23.733817 -6.269701 -12.895711 -52.554725 -3.282994 0.000000 0.000000 0.000000 -0.702307 -24.394424 -8.241926 -1.643700 22.959690 2.882271 -0.938510 -0.677378 -0.442428 0.000000 0.000000 0.000000 6.180341 -3.808679 2.431417 6.684315 11.211373 1.881215 7.122602 -5.052994 3.111339 0.000000 0.000000 0.000000 
-2737.006104 830.547119 1129.848999 -0.794036 3.114748 -0.294794 -0.406055 15.922777 4.968467 -3.187748 -2.619567 -0.872930 -3.378059 2.350006 0.755156 -1.320204 -6.792490 4.989459 0.000000 0.000000 0.000000 -2.058455 -50.004809 4.134121 2.024939 -19.993278 2.945738 10.655643 -31.503514 6.162038 0.000000 0.000000 0.000000 -0.508190 -29.523171 7.953238 2.034851 -23.493012 -6.570854 -12.808844 -52.837922 -3.500436 0.000000 0.000000 0.000000 -1.162075 -24.030073 -8.169597 -1.928699 18.430476 1.674295 -1.277622 -0.695742 -0.592652 0.000000 0.000000 0.000000 6.090821 -3.280763 2.503951 6.524101 10.921171 1.791281 6.939515 -5.230146 3.018895 0.000000 0.000000 0.000000 
-2728.745361 823.590942 1127.244995 -0.131488 3.083941 0.094402 -0.569387 15.939304 4.772713 -3.229333 -2.598769 -0.846765 -3.384382 2.365099 0.734824 -1.321328 -6.583681 4.876870 0.000000 0.000000 0.000000 -2.276108 -49.425149 4.220766 1.960431 -20.060760 2.805567 10.837258 -32.612235 6.526958 0.000000 0.000000 0.000000 -0.631669 -29.087192 7.837746 2.036004 -23.238294 -6.828202 -12.765126 -53.232296 -3.643024 0.000000 0.000000 0.000000 -1.451871 -23.491464 -8.186823 -2.007100 14.311921 0.722639 -1.389475 -1.509896 -0.695766 0.000000 0.000000 0.000000 6.008945 -2.818343 2.572162 6.393249 10.936327 1.755450 6.822754 -5.740068 2.943428 0.000000 0.000000 0.000000 
-2720.006592 816.103577 1124.173950 0.560132 2.897115 0.540605 -0.708303 16.044889 4.514995 -3.254367 -2.615765 -0.800802 -3.390277 2.395768 0.713852 -1.325519 -6.325858 4.783472 0.000000 0.000000 0.000000 -2.519928 -48.842552 4.336036 1.953179 -20.036898 2.639942 11.045032 -33.860097 6.837586 0.000000 0.000000 0.000000 -0.708396 -28.650795 7.693455 2.034603 -22.975684 -7.025182 -12.718457 -53.608347 -3.861965 0.000000 0.000000 0.000000 -1.503323 -22.780661 -8.303634 -1.846936 11.058628 0.081428 -1.307122 -1.695629 -0.671109 0.000000 0.000000 0.000000 5.898956 -2.343395 2.632226 6.239459 11.290916 1.767858 6.719568 -6.349005 2.868174 0.000000 0.000000 0.000000 
